<?xml version="1.0" encoding="UTF-8" standalone="no"?>
<svg
   width="64"
   height="64"
   version="1.1"
   viewBox="0 0 16.933 16.933"
   id="svg21"
   sodipodi:docname="Logo.svg"
   inkscape:version="1.1.1 (3bf5ae0d25, 2021-09-20)"
   xmlns:inkscape="http://www.inkscape.org/namespaces/inkscape"
   xmlns:sodipodi="http://sodipodi.sourceforge.net/DTD/sodipodi-0.dtd"
   xmlns="http://www.w3.org/2000/svg"
   xmlns:svg="http://www.w3.org/2000/svg">
  <sodipodi:namedview
     id="namedview23"
     pagecolor="#ffffff"
     bordercolor="#666666"
     borderopacity="1.0"
     inkscape:pageshadow="2"
     inkscape:pageopacity="0.0"
     inkscape:pagecheckerboard="0"
     showgrid="false"
     inkscape:zoom="8.7062522"
     inkscape:cx="19.411337"
     inkscape:cy="30.208176"
     inkscape:window-width="1920"
     inkscape:window-height="1000"
     inkscape:window-x="0"
     inkscape:window-y="44"
     inkscape:window-maximized="1"
     inkscape:current-layer="g8"
     showguides="false" />
  <defs
     id="defs7">
    <linearGradient
       id="a"
       x1="49.571"
       x2="51.714"
       y1="52.714"
       y2="54.857"
       gradientTransform="matrix(2.3333,0,0,2.3333,-68.667,-72.001)"
       gradientUnits="userSpaceOnUse">
      <stop
         offset="0"
         id="stop2" />
      <stop
         stop-opacity="0"
         offset="1"
         id="stop4" />
    </linearGradient>
  </defs>
  <g
     transform="scale(.26458)"
     id="g13">
    <rect
       x="8"
       y="4"
       width="48"
       height="56"
       ry="5"
       fill="#f4f4f4"
       style="paint-order:stroke fill markers"
       id="rect9" />
    <path
       d="m56 46-14 14h9c2.77 0 5-2.23 5-5z"
       fill="url(#a)"
       fill-rule="evenodd"
       opacity=".1"
       stroke-width="8.8191"
       style="paint-order:stroke fill markers"
       id="path11" />
  </g>
  <g
     inkscape:label="Image"
     id="g8"
     transform="matrix(0.03042287,0,0,0.03042287,3.2743301,2.1880996)">
    <path
       style="fill:#e35b57;stroke:none;stroke-width:1.33333;fill-opacity:1"
       d="M 163.60116,35.953903 C 115.82943,50.345104 141.41983,123.28777 188.9345,109.35003 237.40116,95.132838 211.66116,21.476036 163.60116,35.953903 m -48,89.212927 c -19.395998,4.99494 -57.127468,58.76587 -22.666668,67.64187 16.414138,4.228 22.899338,-11.328 31.478408,-21.63733 2.11066,-2.53467 7.07986,-6.53067 9.67893,-2.14534 2.53467,4.27467 -2.7516,12.716 -4.35693,16.72934 -4.85227,12.13066 -14.6948,27.97733 -13.84974,41.33333 0.96547,15.26 12.85747,20.75467 25.04934,26.36 17.92933,8.24267 35.68,17.14267 53.33333,25.96934 9.32533,4.66266 19.76267,11.77333 30.66533,8.06666 12.308,-4.184 16.812,-20.87466 8.576,-30.816 -9.81733,-11.85067 -31.11866,-17.24667 -44.57466,-24.05733 -4.51067,-2.28267 -13.492,-4.73734 -15.55734,-9.80667 -1.87066,-4.59067 2.44934,-11.53333 4.152,-15.716 4.884,-11.99867 11.94134,-25.79467 13.792,-38.66667 4.264,-29.65333 -23.77466,-33.12933 -45.05333,-38.66666 -9.09067,-2.36574 -21.28733,-7.00387 -30.66667,-4.58854 m 121.33334,1.43934 c -11.736,3.36786 -32.82,15.87453 -38.11067,27.1692 -6.65867,14.21733 6.792,30.77333 22.11067,27.264 11.388,-2.60934 35.51333,-17.62 39.988,-28.61867 6.22533,-15.29867 -8.65734,-30.214 -23.988,-25.81453 m -125.33334,130.6812 c -10.0108,3.016 -24.561728,15.484 -27.256128,25.80133 -4.16494,15.948 10.9408,27.82534 25.922798,23.12934 9.4416,-2.95867 24.19067,-15.88 26.208,-25.796 2.99867,-14.73734 -10.15227,-27.56934 -24.87467,-23.13467 z"
       id="path885" />
    <path
       style="fill:#000000;stroke-width:1.33333"
       id="path827"
       d="" />
  </g>
</svg>
