<?xml version="1.0" encoding="UTF-8" standalone="no"?>
<!-- Created with Inkscape (http://www.inkscape.org/) -->

<svg
   version="1.1"
   id="svg2"
   width="341.33334"
   height="341.33334"
   viewBox="0 0 341.33334 341.33334"
   sodipodi:docname="Player.svg"
   inkscape:version="1.1.1 (3bf5ae0d25, 2021-09-20)"
   xmlns:inkscape="http://www.inkscape.org/namespaces/inkscape"
   xmlns:sodipodi="http://sodipodi.sourceforge.net/DTD/sodipodi-0.dtd"
   xmlns="http://www.w3.org/2000/svg"
   xmlns:svg="http://www.w3.org/2000/svg">
  <defs
     id="defs6" />
  <sodipodi:namedview
     id="namedview4"
     pagecolor="#505050"
     bordercolor="#ffffff"
     borderopacity="1"
     inkscape:pageshadow="0"
     inkscape:pageopacity="0"
     inkscape:pagecheckerboard="1"
     showgrid="false"
     inkscape:zoom="2.0976562"
     inkscape:cx="192.35755"
     inkscape:cy="170.66667"
     inkscape:window-width="1920"
     inkscape:window-height="1000"
     inkscape:window-x="0"
     inkscape:window-y="44"
     inkscape:window-maximized="1"
     inkscape:current-layer="g8" />
  <g
     inkscape:groupmode="layer"
     inkscape:label="Image"
     id="g8">
    <path
       style="fill:#aefb5a;stroke:none;stroke-width:1.33333"
       d="M 163.60116,35.953903 C 115.82943,50.345104 141.41983,123.28777 188.9345,109.35003 237.40116,95.132838 211.66116,21.476036 163.60116,35.953903 m -48,89.212927 c -19.395998,4.99494 -57.127468,58.76587 -22.666668,67.64187 16.414138,4.228 22.899338,-11.328 31.478408,-21.63733 2.11066,-2.53467 7.07986,-6.53067 9.67893,-2.14534 2.53467,4.27467 -2.7516,12.716 -4.35693,16.72934 -4.85227,12.13066 -14.6948,27.97733 -13.84974,41.33333 0.96547,15.26 12.85747,20.75467 25.04934,26.36 17.92933,8.24267 35.68,17.14267 53.33333,25.96934 9.32533,4.66266 19.76267,11.77333 30.66533,8.06666 12.308,-4.184 16.812,-20.87466 8.576,-30.816 -9.81733,-11.85067 -31.11866,-17.24667 -44.57466,-24.05733 -4.51067,-2.28267 -13.492,-4.73734 -15.55734,-9.80667 -1.87066,-4.59067 2.44934,-11.53333 4.152,-15.716 4.884,-11.99867 11.94134,-25.79467 13.792,-38.66667 4.264,-29.65333 -23.77466,-33.12933 -45.05333,-38.66666 -9.09067,-2.36574 -21.28733,-7.00387 -30.66667,-4.58854 m 121.33334,1.43934 c -11.736,3.36786 -32.82,15.87453 -38.11067,27.1692 -6.65867,14.21733 6.792,30.77333 22.11067,27.264 11.388,-2.60934 35.51333,-17.62 39.988,-28.61867 6.22533,-15.29867 -8.65734,-30.214 -23.988,-25.81453 m -125.33334,130.6812 c -10.0108,3.016 -24.561728,15.484 -27.256128,25.80133 -4.16494,15.948 10.9408,27.82534 25.922798,23.12934 9.4416,-2.95867 24.19067,-15.88 26.208,-25.796 2.99867,-14.73734 -10.15227,-27.56934 -24.87467,-23.13467 z"
       id="path885" />
    <path
       style="fill:#000000;stroke-width:1.33333"
       id="path827"
       d="" />
  </g>
</svg>
